HIERARCHY
ROOT Hips
{
	OFFSET -0.001795 -0.223333 0.028219
	CHANNELS 6 Xposition Yposition Zposition Zrotation Yrotation Xrotation 
	JOINT LeftUpLeg
	{
		OFFSET 0.069520 -0.091406 -0.006815
		CHANNELS 3 Zrotation Yrotation Xrotation
		JOINT LeftLeg
		{
			OFFSET 0.034277 -0.375199 -0.004496
			CHANNELS 3 Zrotation Yrotation Xrotation
			JOINT LeftFoot
			{
				OFFSET -0.013596 -0.397961 -0.043693
				CHANNELS 3 Zrotation Yrotation Xrotation
				JOINT LeftToe
				{
					OFFSET 0.026358 -0.055791 0.119288
					CHANNELS 3 Zrotation Yrotation Xrotation
					End Site
					{
						OFFSET 0.000000 0.000000 0.000000
					}
				}
			}
		}
	}
	JOINT RightUpLeg
	{
		OFFSET -0.067670 -0.090522 -0.004320
		CHANNELS 3 Zrotation Yrotation Xrotation
		JOINT RightLeg
		{
			OFFSET -0.038290 -0.382569 -0.008850
			CHANNELS 3 Zrotation Yrotation Xrotation
			JOINT RightFoot
			{
				OFFSET 0.015774 -0.398415 -0.042312
				CHANNELS 3 Zrotation Yrotation Xrotation
				JOINT RightToe
				{
					OFFSET -0.025372 -0.048144 0.123348
					CHANNELS 3 Zrotation Yrotation Xrotation
					End Site
					{
						OFFSET 0.000000 0.000000 0.000000
					}
				}
			}
		}
	}
	JOINT Spine
	{
		OFFSET -0.002533 0.108963 -0.026696
		CHANNELS 3 Zrotation Yrotation Xrotation
		JOINT Spine1
		{
			OFFSET 0.005487 0.135180 0.001092
			CHANNELS 3 Zrotation Yrotation Xrotation
			JOINT Spine2
			{
				OFFSET 0.001457 0.052922 0.025425
				CHANNELS 3 Zrotation Yrotation Xrotation
				JOINT Neck
				{
					OFFSET -0.002778 0.213870 -0.042857
					CHANNELS 3 Zrotation Yrotation Xrotation
					JOINT Head
					{
						OFFSET 0.005152 0.064970 0.051349
						CHANNELS 3 Zrotation Yrotation Xrotation
						End Site
						{
							OFFSET 0.000000 0.000000 0.000000
						}
					}
				}
				JOINT LeftShoulder
				{
					OFFSET 0.078845 0.121749 -0.034090
					CHANNELS 3 Zrotation Yrotation Xrotation
					JOINT LeftArm
					{
						OFFSET 0.090977 0.030469 -0.008868
						CHANNELS 3 Zrotation Yrotation Xrotation
						JOINT LeftForeArm
						{
							OFFSET 0.259612 -0.012772 -0.027456
							CHANNELS 3 Zrotation Yrotation Xrotation
							JOINT LeftHand
							{
								OFFSET 0.249234 0.008986 -0.001171
								CHANNELS 3 Zrotation Yrotation Xrotation
								End Site
								{
									OFFSET 0.000000 0.000000 0.000000
								}
							}
						}
					}
				}
				JOINT RightShoulder
				{
					OFFSET -0.081759 0.118833 -0.038615
					CHANNELS 3 Zrotation Yrotation Xrotation
					JOINT RightArm
					{
						OFFSET -0.096012 0.032551 -0.009143
						CHANNELS 3 Zrotation Yrotation Xrotation
						JOINT RightForeArm
						{
							OFFSET -0.253742 -0.013329 -0.021401
							CHANNELS 3 Zrotation Yrotation Xrotation
							JOINT RightHand
							{
								OFFSET -0.255298 0.007772 -0.005559
								CHANNELS 3 Zrotation Yrotation Xrotation
								End Site
								{
									OFFSET 0.000000 0.000000 0.000000
								}
							}
						}
					}
				}
			}
		}
	}
}
MOTION
Frames: 7
Frame Time: 0.050000
-0.075544 0.783291 0.093220 -1.664615 9.820666 12.534299 14.562027 -1.170810 -55.327933 -17.033066 7.902149 61.433099 20.326805 41.947620 -3.526372 0.000000 0.000000 0.000000 -0.902096 2.779098 -67.392385 -3.300194 3.261503 60.382691 -3.674747 -7.836089 -4.712986 0.000000 0.000000 0.000000 1.334652 -4.440026 43.248512 -0.860361 0.434393 -1.812459 -2.928142 6.885704 10.436061 8.545259 -2.971854 -15.979552 0.000000 0.000000 0.000000 -0.376889 1.957841 -0.941737 -41.426985 14.637774 -10.072697 -5.729340 -28.134737 1.616992 0.000000 0.000000 0.000000 -5.951414 -12.332635 -4.229825 51.207468 -26.910629 -13.609081 -2.804934 26.082042 0.779002 0.000000 0.000000 0.000000 
-0.074390 0.781869 0.097313 -1.637731 9.820897 11.508160 13.296779 -1.660658 -54.022486 -16.609983 7.572787 62.601040 22.129355 43.910300 -1.374529 0.000000 0.000000 0.000000 -0.771778 2.861499 -67.172759 -3.624477 3.543466 61.314344 -2.946103 -6.275007 -3.310279 0.000000 0.000000 0.000000 0.506229 -4.108246 43.692334 -1.020418 0.528102 -2.292713 -2.356330 7.622135 12.086538 8.556073 -2.601790 -17.604230 0.000000 0.000000 0.000000 -3.256728 0.890342 -1.254877 -49.696179 7.762447 -9.949883 -2.347219 -30.184501 0.833186 0.000000 0.000000 0.000000 -4.940752 -9.044348 -3.264824 60.986019 -19.079235 -13.048239 -6.994218 27.047112 0.075790 0.000000 0.000000 0.000000 
-0.071255 0.781112 0.103951 -1.851100 10.162156 10.052648 11.890899 -2.202653 -51.777273 -15.487924 6.448891 62.986067 24.146166 46.698057 -0.727699 0.000000 0.000000 0.000000 -0.868314 2.649447 -65.427028 -3.261003 3.122874 62.066161 -3.784950 -8.255797 -4.171573 0.000000 0.000000 0.000000 1.465898 -4.499599 43.086533 -1.823625 0.839459 -0.865255 -2.726976 8.286752 12.009822 6.926633 -1.330332 -18.657920 0.000000 0.000000 0.000000 -5.785893 -3.093596 -0.374913 -57.299492 0.676192 -8.555989 0.600749 -29.424202 0.087354 0.000000 0.000000 0.000000 -3.074693 -4.988876 -1.897722 67.942145 -11.929600 -10.728231 -11.289263 26.304193 -0.684275 0.000000 0.000000 0.000000 
-0.065812 0.782583 0.113564 -1.772192 10.656684 7.520930 9.971441 -2.738950 -47.575403 -14.697351 5.296629 62.467002 25.942692 48.349665 0.905481 0.000000 0.000000 0.000000 -0.580885 2.599732 -61.909653 -4.512897 3.730108 61.900523 -3.584272 -7.570753 -4.574388 0.000000 0.000000 0.000000 1.715160 -4.651947 43.002587 -2.387910 1.083704 0.021526 -2.644968 8.781761 12.402001 6.220828 -0.726027 -19.281026 0.000000 0.000000 0.000000 -8.014478 -4.846321 -0.225465 -61.084082 -5.216820 -6.218384 0.813969 -27.759823 0.053221 0.000000 0.000000 0.000000 -2.861307 -1.694849 -0.739783 72.615249 -6.472306 -7.968602 -12.990622 24.323354 -0.876146 0.000000 0.000000 0.000000 
-0.058143 0.788342 0.126593 -2.312312 11.706977 6.278503 9.145572 -2.966992 -44.774953 -13.955769 4.186137 62.175152 25.102074 47.194619 0.343831 0.000000 0.000000 0.000000 -0.692720 2.188647 -58.441872 -4.842407 3.427576 60.266633 -4.390301 -9.573872 -5.452529 0.000000 0.000000 0.000000 2.597371 -4.972212 41.572050 -3.217973 1.463198 0.200083 -2.904763 9.322724 11.914571 5.457506 -0.176346 -19.109153 0.000000 0.000000 0.000000 -9.972281 -7.177156 0.181455 -61.755717 -6.374066 -5.502776 0.329512 -27.674088 0.114878 0.000000 0.000000 0.000000 -0.857347 1.200031 0.489940 73.928001 -3.949889 -6.499452 -12.044113 23.047699 -0.671517 0.000000 0.000000 0.000000 
-0.048685 0.805840 0.142842 -2.300098 13.468712 5.140464 7.558841 -3.293441 -40.561973 -13.017247 2.608888 61.143880 22.267999 43.084254 -0.987572 0.000000 0.000000 0.000000 -1.850903 1.143742 -54.098158 -4.674515 2.533388 57.351260 -4.545362 -9.799960 -6.738695 0.000000 0.000000 0.000000 3.117570 -5.176994 39.961292 -3.723109 1.698885 0.120324 -3.240929 9.223010 11.964786 5.162605 0.324670 -20.615613 0.000000 0.000000 0.000000 -10.781566 -7.334950 -0.051060 -61.286013 -7.259062 -4.898613 -2.231714 -25.233266 0.669646 0.000000 0.000000 0.000000 -1.207675 2.674639 0.995979 76.414437 -2.709903 -5.472826 -8.907813 21.959488 -0.218068 0.000000 0.000000 0.000000 
-0.037977 0.832199 0.160854 -1.908875 14.107883 5.266109 5.986061 -3.194238 -35.707755 -11.607942 1.289256 55.933349 19.474904 39.005773 -3.733839 0.000000 0.000000 0.000000 -3.411888 0.372693 -50.556146 -4.940372 2.324622 53.539490 -3.710364 -8.388718 -2.929980 0.000000 0.000000 0.000000 2.749966 -4.596581 37.102950 -5.008517 2.245422 2.071999 -2.754260 9.263102 10.210024 3.827077 1.055746 -20.267025 0.000000 0.000000 0.000000 -10.897235 -7.761935 0.029373 -60.898734 -5.884667 -5.385337 -5.108966 -23.962550 1.226649 0.000000 0.000000 0.000000 -0.138935 3.776822 1.578887 76.204724 -3.096179 -5.740520 -6.493568 22.213943 0.108254 0.000000 0.000000 0.000000 
